<svg xmlns="http://www.w3.org/2000/svg" viewBox="0 0 32.16 31.65"><defs><style>.cls-1{fill:#fff;}</style></defs><title>Asset 8</title><g id="Layer_2" data-name="Layer 2"><g id="Layer_1-2" data-name="Layer 1"><path class="cls-1" d="M2.46,30.76A18.08,18.08,0,0,1,5,25.39a34.42,34.42,0,0,1,4-5,65.79,65.79,0,0,1,9.54-8.2c1.38-1,2.79-1.94,4.25-2.83a1.25,1.25,0,0,0-1.27-2.16,75.14,75.14,0,0,0-8.8,6.33,49.62,49.62,0,0,0-9.49,10A21.41,21.41,0,0,0,.05,30.09a1.25,1.25,0,0,0,2.41.67Z"/><path class="cls-1" d="M10.51,18.56a20,20,0,0,1,3-10.19A13.38,13.38,0,0,1,17,4.69a12.3,12.3,0,0,1,5.66-2.1A14.66,14.66,0,0,1,26,2.6a10.9,10.9,0,0,1,3.08.73,1.08,1.08,0,0,1,.49.48A2.43,2.43,0,0,1,29.63,5a15.6,15.6,0,0,1-.41,2.89,13.25,13.25,0,0,1-6.82,8.72C18.65,18.46,14,18.64,9.93,18a1.3,1.3,0,0,0-1.54.88,1.27,1.27,0,0,0,.88,1.54A24.07,24.07,0,0,0,22.4,19.3a15.69,15.69,0,0,0,9-9.87A18.7,18.7,0,0,0,32,6.1a6,6,0,0,0-.31-3.54,4.42,4.42,0,0,0-3-2A17.09,17.09,0,0,0,25,0,15.09,15.09,0,0,0,12.62,5.38,21.8,21.8,0,0,0,8,18.56c-.06,1.61,2.44,1.61,2.5,0Z"/></g></g></svg>