<svg xmlns="http://www.w3.org/2000/svg" viewBox="0 0 196.94 87.61"><defs><style>.cls-1{fill:#fff;}</style></defs><title>Asset 6</title><g id="Layer_2" data-name="Layer 2"><g id="Layer_1-2" data-name="Layer 1"><path class="cls-1" d="M84.94,40a23.77,23.77,0,0,1,3.26-7,45.08,45.08,0,0,1,5.2-6.47A85.5,85.5,0,0,1,105.81,15.9c1.81-1.29,3.64-2.52,5.54-3.67s.15-3.91-1.65-2.82a97.78,97.78,0,0,0-11.46,8.24,64.4,64.4,0,0,0-12.34,13,28,28,0,0,0-4.1,8.53c-.54,2,2.61,2.89,3.14.87Z"/><path class="cls-1" d="M95.42,24.16a26.07,26.07,0,0,1,3.91-13.27,17.45,17.45,0,0,1,4.56-4.78,16.09,16.09,0,0,1,7.37-2.74,18.83,18.83,0,0,1,4.31,0,14.06,14.06,0,0,1,4,.94,1.44,1.44,0,0,1,.65.62,3.26,3.26,0,0,1,.09,1.5,20.05,20.05,0,0,1-.54,3.76,17.23,17.23,0,0,1-8.87,11.35C106,24,100,24.26,94.67,23.37a1.68,1.68,0,0,0-2,1.14,1.64,1.64,0,0,0,1.14,2c5.67.95,11.72.84,17.1-1.39a20.43,20.43,0,0,0,11.68-12.84A22.9,22.9,0,0,0,123.44,8a7.71,7.71,0,0,0-.4-4.61c-.83-1.54-2.34-2.13-3.94-2.56A22.33,22.33,0,0,0,114.29,0,19.63,19.63,0,0,0,98.17,7a28.35,28.35,0,0,0-6,17.15c-.07,2.09,3.19,2.09,3.26,0Z"/><path class="cls-1" d="M4.13,49.6V64a5.41,5.41,0,0,1,2.32-2.65,7.38,7.38,0,0,1,3.8-.93,7.26,7.26,0,0,1,5.83,2.65,10.48,10.48,0,0,1,2.24,7,10.76,10.76,0,0,1-2.2,7.17,7.45,7.45,0,0,1-6,2.62,7.25,7.25,0,0,1-3.38-.76,7.33,7.33,0,0,1-2.58-2.32v2.34H0V49.6ZM4,70a6.68,6.68,0,0,0,1.42,4.46,4.56,4.56,0,0,0,3.66,1.7,4.44,4.44,0,0,0,3.63-1.57A6.78,6.78,0,0,0,14,70.19a6.74,6.74,0,0,0-1.35-4.47A4.54,4.54,0,0,0,9,64.11a4.54,4.54,0,0,0-3.66,1.56A6.62,6.62,0,0,0,4,70Z"/><path class="cls-1" d="M40.09,70.7H25.65a6,6,0,0,0,1.51,4,4.71,4.71,0,0,0,3.59,1.42,6.15,6.15,0,0,0,3.34-.84,6.92,6.92,0,0,0,2.32-2.7l3.49,1.94a10.57,10.57,0,0,1-3.78,4.06,10.09,10.09,0,0,1-5.27,1.33,9.17,9.17,0,0,1-6.91-2.65,9.67,9.67,0,0,1-2.57-7.06,9.6,9.6,0,0,1,2.65-7,9.12,9.12,0,0,1,6.83-2.73,9.09,9.09,0,0,1,6.8,2.49,9.59,9.59,0,0,1,2.44,7ZM35.8,67.92a4.38,4.38,0,0,0-1.48-3,5.19,5.19,0,0,0-3.39-1,5.11,5.11,0,0,0-3.28,1,5.35,5.35,0,0,0-1.73,3Z"/><path class="cls-1" d="M45.36,79.12V64.68H42.2V61.06h3.16V54.23h4.13v6.83h3.16v3.62H49.49V79.12Z"/><path class="cls-1" d="M57.19,79.12V64.68H54V61.06h3.17V54.23h4.13v6.83h3.16v3.62H61.32V79.12Z"/><path class="cls-1" d="M85.43,70.7H71a6,6,0,0,0,1.51,4,4.72,4.72,0,0,0,3.6,1.42,6.14,6.14,0,0,0,3.33-.84,6.92,6.92,0,0,0,2.32-2.7l3.49,1.94a10.63,10.63,0,0,1-3.77,4.06,10.15,10.15,0,0,1-5.28,1.33,9.17,9.17,0,0,1-6.91-2.65,9.67,9.67,0,0,1-2.57-7.06,9.6,9.6,0,0,1,2.65-7,9.13,9.13,0,0,1,6.83-2.73A9.09,9.09,0,0,1,83,62.93a9.59,9.59,0,0,1,2.44,7Zm-4.29-2.78a4.38,4.38,0,0,0-1.48-3,5.19,5.19,0,0,0-3.39-1,5.11,5.11,0,0,0-3.28,1,5.35,5.35,0,0,0-1.73,3Z"/><path class="cls-1" d="M93.86,63.94a5.92,5.92,0,0,1,1.76-2.65,4.29,4.29,0,0,1,2.72-.85,7.1,7.1,0,0,1,1.72.21,8.19,8.19,0,0,1,1.67.61l-1.49,3.5a3.84,3.84,0,0,0-1.15-.56A4.91,4.91,0,0,0,97.71,64a3.1,3.1,0,0,0-2.95,1.64,12.37,12.37,0,0,0-.9,5.54v7.92H89.73V61h4.13Z"/><path class="cls-1" d="M117.57,66.21a6.37,6.37,0,0,0-2.22-1.6,6.7,6.7,0,0,0-2.73-.56,5.3,5.3,0,0,0-4.06,1.64,7.07,7.07,0,0,0,0,8.77,5.61,5.61,0,0,0,4.24,1.61,6.28,6.28,0,0,0,2.69-.56,5.86,5.86,0,0,0,2.07-1.71v4.77a9.86,9.86,0,0,1-2.45,1,11.75,11.75,0,0,1-2.77.32,9.31,9.31,0,0,1-6.92-2.7,9.56,9.56,0,0,1-2.67-7,9.34,9.34,0,0,1,2.77-7,10,10,0,0,1,7.24-2.67,11.57,11.57,0,0,1,2.59.27,8.66,8.66,0,0,1,2.21.85Z"/><path class="cls-1" d="M138.79,79.12h-4.14V76.78a6.86,6.86,0,0,1-6,3.08,7.42,7.42,0,0,1-6-2.62,10.76,10.76,0,0,1-2.2-7.17,10.43,10.43,0,0,1,2.24-7,8,8,0,0,1,9.65-1.73A5.38,5.38,0,0,1,134.65,64v-3h4.14Zm-4-9.09a6.62,6.62,0,0,0-1.31-4.36,4.48,4.48,0,0,0-3.64-1.56,4.56,4.56,0,0,0-3.69,1.61,6.79,6.79,0,0,0-1.34,4.47,6.78,6.78,0,0,0,1.29,4.43,4.88,4.88,0,0,0,7.29-.13A6.78,6.78,0,0,0,134.77,70Z"/><path class="cls-1" d="M148.63,79.12H144.5V61.06h3.88v3a8.06,8.06,0,0,1,2.81-2.75,7.54,7.54,0,0,1,3.71-.87,6.42,6.42,0,0,1,3.5.88,5.44,5.44,0,0,1,2.11,2.7,9.63,9.63,0,0,1,3-2.72,7.59,7.59,0,0,1,3.67-.86,7,7,0,0,1,3.12.66,4.49,4.49,0,0,1,2.58,3.32,12.68,12.68,0,0,1,.16,2.34v12.4H169V69.84c0-2.42-.26-4-.77-4.79a3.09,3.09,0,0,0-2.75-1.15A3.88,3.88,0,0,0,162,65.45q-1,1.56-1,5.44v8.23h-4.17V69.84a9.4,9.4,0,0,0-.81-4.64,3,3,0,0,0-2.79-1.3,4.62,4.62,0,0,0-2.22.55,4.13,4.13,0,0,0-1.6,1.53,4.18,4.18,0,0,0-.54,1.54,24.71,24.71,0,0,0-.15,3.37Z"/><path class="cls-1" d="M178.62,87.61V61.06h4.14v3a5.39,5.39,0,0,1,2.31-2.65,7.41,7.41,0,0,1,3.8-.93,7.28,7.28,0,0,1,5.84,2.65,10.48,10.48,0,0,1,2.23,7,10.76,10.76,0,0,1-2.2,7.17,7.42,7.42,0,0,1-6,2.62,6.86,6.86,0,0,1-6-3.08V87.61Zm4-17.58a6.79,6.79,0,0,0,1.4,4.48,4.57,4.57,0,0,0,3.69,1.68,4.42,4.42,0,0,0,3.62-1.57,6.78,6.78,0,0,0,1.29-4.43,6.79,6.79,0,0,0-1.34-4.47,4.57,4.57,0,0,0-3.69-1.61,4.5,4.5,0,0,0-3.65,1.56A6.56,6.56,0,0,0,182.62,70Z"/></g></g></svg>